<?xml version="1.0" encoding="UTF-8" standalone="no"?>
<!DOCTYPE svg PUBLIC "-//W3C//DTD SVG 20010904//EN"
              "http://www.w3.org/TR/2001/REC-SVG-20010904/DTD/svg10.dtd">

<svg xmlns="http://www.w3.org/2000/svg"
     width="119.708in" height="18.0556in"
     viewBox="0 0 8619 1300">
  <path id="Selection #1"
        fill="none" stroke="black" stroke-width="1"
        d="M 0.00,0.00
           C 0.00,0.00 0.00,1300.00 0.00,1300.00
             0.00,1300.00 8619.00,1300.00 8619.00,1300.00
             8619.00,1300.00 8619.00,0.00 8619.00,0.00
             8619.00,0.00 0.00,0.00 0.00,0.00 Z
           M 3110.00,402.00
           C 3107.64,409.12 3092.24,427.85 3086.87,435.00
             3086.87,435.00 3038.37,500.00 3038.37,500.00
             3038.37,500.00 3021.13,523.00 3021.13,523.00
             3019.44,525.25 3014.95,531.82 3012.70,532.87
             3009.40,534.42 3002.13,529.81 2999.00,528.25
             2999.00,528.25 2968.00,513.25 2968.00,513.25
             2965.50,512.00 2958.28,508.90 2957.13,506.61
             2955.79,503.95 2958.45,500.32 2959.69,498.00
             2959.69,498.00 2971.76,475.00 2971.76,475.00
             2971.76,475.00 2993.69,434.00 2993.69,434.00
             2993.69,434.00 3015.86,392.00 3015.86,392.00
             3015.86,392.00 3026.58,372.00 3026.58,372.00
             3027.81,369.82 3029.63,365.47 3032.21,364.81
             3034.30,364.28 3037.16,365.87 3039.00,366.76
             3039.00,366.76 3053.00,373.75 3053.00,373.75
             3053.00,373.75 3110.00,402.00 3110.00,402.00 Z
           M 2481.00,416.00
           C 2481.00,416.00 2481.00,517.00 2481.00,517.00
             2481.00,517.00 2379.00,517.00 2379.00,517.00
             2379.00,517.00 2379.00,416.00 2379.00,416.00
             2379.00,416.00 2481.00,416.00 2481.00,416.00 Z
           M 3626.00,416.00
           C 3626.00,416.00 3626.00,517.00 3626.00,517.00
             3626.00,517.00 3524.00,517.00 3524.00,517.00
             3524.00,517.00 3524.00,416.00 3524.00,416.00
             3524.00,416.00 3626.00,416.00 3626.00,416.00 Z
           M 4683.00,419.00
           C 4683.00,419.00 4683.00,890.00 4683.00,890.00
             4683.00,890.00 4587.00,890.00 4587.00,890.00
             4587.00,890.00 4587.00,831.00 4587.00,831.00
             4581.37,833.98 4579.61,840.62 4576.69,846.00
             4573.07,852.68 4566.90,861.37 4561.83,867.00
             4537.85,893.64 4513.14,898.40 4479.00,898.00
             4471.77,897.91 4458.03,895.56 4451.00,893.57
             4386.73,875.44 4363.70,805.15 4363.00,745.00
             4363.00,745.00 4362.00,732.00 4362.00,732.00
             4362.00,732.00 4362.00,722.00 4362.00,722.00
             4362.00,722.00 4363.00,701.00 4363.00,701.00
             4363.00,701.00 4366.59,670.00 4366.59,670.00
             4372.97,631.96 4388.37,593.60 4422.00,571.69
             4431.23,565.68 4438.49,562.28 4449.00,559.02
             4466.36,553.64 4477.26,553.80 4495.00,554.00
             4523.65,554.34 4548.45,567.85 4566.19,590.00
             4570.63,595.54 4574.49,601.69 4577.74,608.00
             4580.41,613.16 4581.66,618.18 4587.00,621.00
             4587.00,621.00 4587.00,419.00 4587.00,419.00
             4587.00,419.00 4683.00,419.00 4683.00,419.00 Z
           M 703.00,713.00
           C 703.00,713.00 728.74,765.00 728.74,765.00
             728.74,765.00 761.26,832.00 761.26,832.00
             761.26,832.00 789.00,890.00 789.00,890.00
             789.00,890.00 692.00,890.00 692.00,890.00
             681.92,889.98 684.04,889.55 677.22,875.00
             677.22,875.00 658.69,834.00 658.69,834.00
             658.69,834.00 621.58,752.00 621.58,752.00
             621.58,752.00 613.86,735.00 613.86,735.00
             612.64,732.26 611.50,728.63 608.79,727.02
             606.72,725.80 603.37,726.00 601.00,726.00
             601.00,726.00 567.00,726.00 567.00,726.00
             567.00,726.00 567.00,890.00 567.00,890.00
             567.00,890.00 472.00,890.00 472.00,890.00
             472.00,890.00 472.00,446.00 472.00,446.00
             472.00,446.00 618.00,446.00 618.00,446.00
             618.00,446.00 655.00,446.00 655.00,446.00
             678.78,446.04 708.54,454.74 728.00,468.44
             761.09,491.73 776.10,527.84 779.96,567.00
             779.96,567.00 779.96,575.00 779.96,575.00
             779.96,575.00 781.00,585.00 781.00,585.00
             781.00,585.00 779.96,598.00 779.96,598.00
             779.96,598.00 779.96,607.00 779.96,607.00
             777.08,635.72 765.49,668.15 744.83,688.83
             732.39,701.29 719.40,707.53 703.00,713.00 Z
           M 2710.00,446.00
           C 2710.00,446.00 2710.00,561.00 2710.00,561.00
             2710.00,561.00 2787.00,561.00 2787.00,561.00
             2787.00,561.00 2787.00,635.00 2787.00,635.00
             2787.00,635.00 2710.00,635.00 2710.00,635.00
             2710.00,635.00 2710.00,791.00 2710.00,791.00
             2710.02,806.55 2718.08,815.98 2734.00,816.00
             2734.00,816.00 2787.00,816.00 2787.00,816.00
             2787.00,816.00 2787.00,890.00 2787.00,890.00
             2787.00,890.00 2725.00,890.00 2725.00,890.00
             2701.97,890.00 2682.42,890.44 2661.00,879.73
             2654.56,876.51 2648.41,872.47 2643.00,867.71
             2625.00,851.87 2615.04,824.68 2615.00,801.00
             2615.00,801.00 2615.00,774.00 2615.00,774.00
             2615.00,774.00 2615.00,635.00 2615.00,635.00
             2615.00,635.00 2551.00,635.00 2551.00,635.00
             2551.00,635.00 2551.00,561.00 2551.00,561.00
             2551.00,561.00 2615.00,561.00 2615.00,561.00
             2615.00,561.00 2615.00,446.00 2615.00,446.00
             2615.00,446.00 2710.00,446.00 2710.00,446.00 Z
           M 5533.00,729.00
           C 5533.00,729.00 5533.00,890.00 5533.00,890.00
             5533.00,890.00 5436.00,890.00 5436.00,890.00
             5436.00,890.00 5436.00,446.00 5436.00,446.00
             5436.00,446.00 5583.00,446.00 5583.00,446.00
             5583.00,446.00 5619.00,446.00 5619.00,446.00
             5643.51,446.04 5674.32,455.22 5694.00,469.90
             5725.85,493.65 5740.15,528.43 5743.96,567.00
             5743.96,567.00 5743.96,575.00 5743.96,575.00
             5743.96,575.00 5745.00,585.00 5745.00,585.00
             5745.00,585.00 5745.00,589.00 5745.00,589.00
             5745.00,589.00 5743.96,599.00 5743.96,599.00
             5743.96,599.00 5743.96,608.00 5743.96,608.00
             5739.92,649.04 5722.75,686.57 5687.00,709.31
             5666.45,722.37 5637.22,728.96 5613.00,729.00
             5613.00,729.00 5592.00,729.00 5592.00,729.00
             5592.00,729.00 5533.00,729.00 5533.00,729.00 Z
           M 567.00,524.00
           C 567.00,524.00 567.00,651.00 567.00,651.00
             584.12,651.00 623.32,652.03 638.00,650.00
             649.00,648.48 661.03,645.42 668.82,636.96
             676.38,628.74 679.95,614.98 680.00,604.00
             680.00,604.00 680.00,581.00 680.00,581.00
             680.00,561.83 679.39,542.82 661.00,531.47
             656.56,528.73 652.98,527.62 648.00,526.37
             642.24,524.94 636.95,524.03 631.00,524.00
             631.00,524.00 567.00,524.00 567.00,524.00 Z
           M 5533.00,524.00
           C 5533.00,524.00 5533.00,651.00 5533.00,651.00
             5533.00,651.00 5590.00,651.00 5590.00,651.00
             5600.67,650.87 5616.00,648.11 5625.00,642.30
             5646.74,628.27 5643.04,596.48 5643.00,574.00
             5642.99,567.13 5642.06,559.56 5639.97,553.00
             5637.23,544.36 5632.70,537.17 5625.00,532.11
             5616.55,526.55 5602.05,524.02 5592.00,524.00
             5592.00,524.00 5533.00,524.00 5533.00,524.00 Z
           M 6859.00,615.00
           C 6859.00,615.00 6861.00,615.00 6861.00,615.00
             6864.93,598.21 6877.80,582.39 6891.00,571.81
             6925.90,543.85 6985.69,537.91 7022.00,566.52
             7030.40,573.14 7038.08,582.81 7043.55,592.00
             7064.68,627.51 7063.00,670.25 7063.00,710.00
             7063.00,710.00 7063.00,890.00 7063.00,890.00
             7063.00,890.00 6968.00,890.00 6968.00,890.00
             6968.00,890.00 6968.00,684.00 6968.00,684.00
             6967.78,665.33 6963.00,641.96 6946.00,631.47
             6924.66,618.29 6890.09,627.01 6875.79,647.00
             6870.11,654.94 6868.01,664.40 6868.00,674.00
             6868.00,674.00 6868.00,890.00 6868.00,890.00
             6868.00,890.00 6773.00,890.00 6773.00,890.00
             6773.00,890.00 6773.00,691.00 6773.00,691.00
             6773.00,691.00 6772.09,679.00 6772.09,679.00
             6770.47,655.92 6763.25,631.27 6737.00,626.26
             6733.47,625.59 6729.59,624.89 6726.00,625.09
             6699.04,626.62 6673.05,642.40 6673.00,672.00
             6673.00,672.00 6673.00,890.00 6673.00,890.00
             6673.00,890.00 6577.00,890.00 6577.00,890.00
             6577.00,890.00 6577.00,556.00 6577.00,556.00
             6577.00,556.00 6664.00,556.00 6664.00,556.00
             6670.74,556.01 6672.86,555.51 6673.00,563.00
             6673.00,563.00 6673.00,612.00 6673.00,612.00
             6677.52,609.19 6681.74,596.35 6684.86,591.00
             6691.17,580.20 6701.56,568.94 6712.00,562.08
             6726.24,552.71 6745.02,548.03 6762.00,548.00
             6801.31,547.94 6833.75,561.08 6852.25,598.00
             6855.44,604.36 6857.39,607.92 6859.00,615.00 Z
           M 1156.00,749.00
           C 1156.00,749.00 932.00,749.00 932.00,749.00
             932.00,760.99 931.91,769.40 936.23,781.00
             946.81,809.42 971.26,821.99 1000.00,824.09
             1000.00,824.09 1009.00,824.97 1009.00,824.97
             1009.00,824.97 1018.00,824.08 1018.00,824.08
             1029.99,823.12 1041.96,820.66 1053.00,815.69
             1072.15,807.06 1080.45,798.55 1095.00,784.00
             1102.63,789.46 1124.61,815.29 1133.01,824.00
             1135.58,826.66 1145.71,836.79 1145.66,840.00
             1145.63,842.72 1141.81,846.16 1140.00,848.00
             1133.00,855.10 1129.11,858.89 1121.00,864.85
             1093.20,885.23 1062.03,894.60 1028.00,897.09
             1028.00,897.09 1018.00,898.00 1018.00,898.00
             981.08,898.43 949.71,896.14 916.00,879.25
             882.53,862.47 858.70,832.41 847.34,797.00
             842.45,781.73 839.69,765.93 838.04,750.00
             838.04,750.00 838.04,741.00 838.04,741.00
             838.04,741.00 837.00,729.00 837.00,729.00
             837.00,729.00 837.00,723.00 837.00,723.00
             837.00,723.00 838.04,713.00 838.04,713.00
             838.04,713.00 838.04,704.00 838.04,704.00
             842.51,658.42 856.15,620.53 891.00,589.17
             914.65,567.89 953.25,554.38 985.00,554.00
             985.00,554.00 1008.00,554.00 1008.00,554.00
             1038.10,554.05 1071.81,564.95 1096.00,582.73
             1103.40,588.17 1111.68,596.17 1117.83,603.00
             1124.97,610.93 1131.41,620.49 1136.24,630.00
             1148.23,653.58 1155.96,682.41 1156.00,709.00
             1156.00,709.00 1156.00,749.00 1156.00,749.00 Z
           M 1320.00,831.00
           C 1320.00,831.00 1320.00,974.00 1320.00,974.00
             1320.00,974.00 1225.00,974.00 1225.00,974.00
             1225.00,974.00 1225.00,561.00 1225.00,561.00
             1225.00,561.00 1320.00,561.00 1320.00,561.00
             1320.00,561.00 1320.00,621.00 1320.00,621.00
             1325.59,619.16 1326.71,613.94 1329.26,609.00
             1333.11,601.54 1337.74,594.48 1343.08,588.00
             1360.21,567.22 1384.77,554.32 1412.00,554.00
             1412.00,554.00 1428.00,554.00 1428.00,554.00
             1454.95,554.04 1481.65,565.44 1501.00,584.04
             1528.48,610.45 1539.23,649.23 1543.16,686.00
             1543.16,686.00 1545.00,709.00 1545.00,709.00
             1545.00,709.00 1545.00,743.00 1545.00,743.00
             1545.00,743.00 1543.16,766.00 1543.16,766.00
             1538.53,809.29 1523.73,855.91 1485.00,880.56
             1475.77,886.44 1468.40,889.75 1458.00,892.98
             1442.34,897.82 1430.14,898.19 1414.00,898.00
             1386.83,897.68 1361.36,885.95 1344.08,865.00
             1338.21,857.87 1333.50,851.23 1329.26,843.00
             1326.60,837.85 1325.85,832.85 1320.00,831.00 Z
           M 1742.00,554.14
           C 1742.00,554.14 1774.00,554.14 1774.00,554.14
             1774.00,554.14 1784.00,554.92 1784.00,554.92
             1819.36,557.75 1854.63,571.70 1879.96,597.04
             1909.01,626.09 1922.28,665.83 1925.09,706.00
             1925.09,706.00 1926.00,718.00 1926.00,718.00
             1926.00,718.00 1926.00,734.00 1926.00,734.00
             1926.00,734.00 1925.09,746.00 1925.09,746.00
             1921.82,792.73 1904.22,837.53 1866.00,866.76
             1840.13,886.56 1802.49,897.95 1770.00,898.00
             1770.00,898.00 1750.00,898.00 1750.00,898.00
             1750.00,898.00 1740.00,897.09 1740.00,897.09
             1702.39,894.34 1665.20,880.00 1639.09,852.00
             1614.70,825.85 1602.28,794.05 1597.72,759.00
             1597.72,759.00 1596.00,742.00 1596.00,742.00
             1596.00,742.00 1596.00,712.00 1596.00,712.00
             1596.05,678.06 1608.57,639.13 1628.89,612.00
             1648.31,586.07 1675.04,569.16 1706.00,560.43
             1717.88,557.07 1729.87,556.03 1742.00,554.14 Z
           M 2130.00,554.09
           C 2130.00,554.09 2152.00,554.09 2152.00,554.09
             2152.00,554.09 2166.00,554.09 2166.00,554.09
             2166.00,554.09 2178.00,554.91 2178.00,554.91
             2207.40,557.06 2237.05,564.75 2262.00,580.86
             2268.82,585.27 2275.24,590.27 2281.00,596.00
             2282.61,597.61 2286.12,600.93 2286.83,603.00
             2288.22,607.03 2280.55,614.07 2277.95,617.00
             2277.95,617.00 2252.42,646.00 2252.42,646.00
             2250.65,648.05 2243.99,656.07 2241.83,656.66
             2238.98,657.45 2235.92,653.86 2234.00,652.16
             2227.62,646.53 2223.15,643.24 2216.00,638.69
             2200.07,628.57 2174.91,621.22 2156.00,621.00
             2140.18,620.82 2123.17,620.73 2109.00,628.88
             2097.87,635.28 2090.66,648.21 2095.11,661.00
             2098.24,670.01 2106.44,674.51 2115.00,677.25
             2126.05,680.80 2158.00,685.36 2171.00,687.27
             2210.19,693.04 2264.89,704.45 2283.68,744.00
             2290.94,759.28 2292.03,774.43 2292.00,791.00
             2291.93,835.03 2263.32,867.68 2224.00,883.99
             2204.69,892.00 2183.75,895.64 2163.00,897.09
             2163.00,897.09 2151.00,898.00 2151.00,898.00
             2119.63,898.05 2099.93,897.64 2069.00,889.87
             2045.26,883.91 2020.95,872.98 2002.00,857.39
             1997.95,854.05 1985.68,842.63 1984.28,838.00
             1982.78,833.02 1990.72,827.60 1994.00,824.72
             1994.00,824.72 2023.00,797.91 2023.00,797.91
             2025.59,795.50 2031.74,788.48 2035.00,788.05
             2038.50,787.59 2042.61,792.69 2045.00,794.91
             2052.13,801.53 2060.57,807.85 2069.00,812.72
             2093.26,826.71 2116.32,831.13 2144.00,831.00
             2164.96,830.90 2196.89,823.49 2198.82,798.00
             2199.62,787.39 2192.35,779.29 2183.00,775.45
             2169.20,769.79 2146.30,767.25 2131.00,764.75
             2093.03,758.55 2050.70,753.68 2022.01,724.99
             2006.80,709.76 2001.77,690.83 2000.96,670.00
             2000.54,659.22 2000.78,648.58 2003.23,638.00
             2010.27,607.70 2030.33,585.58 2058.00,572.11
             2074.64,564.01 2092.65,558.75 2111.00,556.28
             2111.00,556.28 2130.00,554.09 2130.00,554.09 Z
           M 2983.00,554.14
           C 2983.00,554.14 3015.00,554.14 3015.00,554.14
             3015.00,554.14 3025.00,554.92 3025.00,554.92
             3060.36,557.75 3095.63,571.70 3120.96,597.04
             3150.01,626.09 3163.28,665.83 3166.09,706.00
             3166.09,706.00 3167.00,718.00 3167.00,718.00
             3167.00,718.00 3167.00,734.00 3167.00,734.00
             3167.00,734.00 3166.09,746.00 3166.09,746.00
             3162.82,792.73 3145.22,837.53 3107.00,866.76
             3081.13,886.56 3043.49,897.95 3011.00,898.00
             3011.00,898.00 2991.00,898.00 2991.00,898.00
             2991.00,898.00 2981.00,897.09 2981.00,897.09
             2943.39,894.34 2906.20,880.00 2880.09,852.00
             2855.70,825.85 2843.28,794.05 2838.72,759.00
             2838.72,759.00 2837.00,742.00 2837.00,742.00
             2837.00,742.00 2837.00,712.00 2837.00,712.00
             2837.05,678.06 2849.57,639.13 2869.89,612.00
             2889.31,586.07 2916.04,569.16 2947.00,560.43
             2958.88,557.07 2970.87,556.03 2983.00,554.14 Z
           M 3842.00,554.14
           C 3842.00,554.14 3874.00,554.14 3874.00,554.14
             3874.00,554.14 3884.00,554.92 3884.00,554.92
             3919.36,557.75 3954.63,571.70 3979.96,597.04
             4009.01,626.09 4022.28,665.83 4025.09,706.00
             4025.09,706.00 4026.00,718.00 4026.00,718.00
             4026.00,718.00 4026.00,734.00 4026.00,734.00
             4026.00,734.00 4025.09,746.00 4025.09,746.00
             4021.82,792.73 4004.22,837.53 3966.00,866.76
             3940.13,886.56 3902.49,897.95 3870.00,898.00
             3870.00,898.00 3850.00,898.00 3850.00,898.00
             3850.00,898.00 3840.00,897.09 3840.00,897.09
             3802.39,894.34 3765.20,880.00 3739.09,852.00
             3714.70,825.85 3702.28,794.05 3697.72,759.00
             3697.72,759.00 3696.00,742.00 3696.00,742.00
             3696.00,742.00 3696.00,712.00 3696.00,712.00
             3696.05,678.06 3708.57,639.13 3728.89,612.00
             3748.31,586.07 3775.04,569.16 3806.00,560.43
             3817.88,557.07 3829.87,556.03 3842.00,554.14 Z
           M 5070.00,749.00
           C 5070.00,749.00 4846.00,749.00 4846.00,749.00
             4846.00,760.99 4845.91,769.40 4850.23,781.00
             4860.81,809.42 4885.26,821.99 4914.00,824.09
             4914.00,824.09 4923.00,824.97 4923.00,824.97
             4923.00,824.97 4932.00,824.08 4932.00,824.08
             4943.99,823.12 4955.96,820.66 4967.00,815.69
             4986.15,807.06 4994.45,798.55 5009.00,784.00
             5016.63,789.46 5038.61,815.29 5047.01,824.00
             5049.58,826.66 5059.71,836.79 5059.66,840.00
             5059.63,842.72 5055.81,846.16 5054.00,848.00
             5047.00,855.10 5043.11,858.89 5035.00,864.85
             5007.20,885.23 4976.03,894.60 4942.00,897.09
             4942.00,897.09 4932.00,898.00 4932.00,898.00
             4895.08,898.43 4863.71,896.14 4830.00,879.25
             4796.53,862.47 4772.70,832.41 4761.34,797.00
             4756.45,781.73 4753.69,765.93 4752.04,750.00
             4752.04,750.00 4752.04,741.00 4752.04,741.00
             4752.04,741.00 4751.00,729.00 4751.00,729.00
             4751.00,729.00 4751.00,723.00 4751.00,723.00
             4751.00,723.00 4752.04,713.00 4752.04,713.00
             4752.04,713.00 4752.04,704.00 4752.04,704.00
             4756.51,658.42 4770.15,620.53 4805.00,589.17
             4828.65,567.89 4867.25,554.38 4899.00,554.00
             4899.00,554.00 4922.00,554.00 4922.00,554.00
             4952.10,554.05 4985.81,564.95 5010.00,582.73
             5017.40,588.17 5025.68,596.17 5031.83,603.00
             5038.97,610.93 5045.41,620.49 5050.24,630.00
             5062.23,653.58 5069.96,682.41 5070.00,709.00
             5070.00,709.00 5070.00,749.00 5070.00,749.00 Z
           M 5942.00,554.14
           C 5942.00,554.14 5974.00,554.14 5974.00,554.14
             5974.00,554.14 5984.00,554.92 5984.00,554.92
             6019.36,557.75 6054.63,571.70 6079.96,597.04
             6109.01,626.09 6122.28,665.83 6125.09,706.00
             6125.09,706.00 6126.00,718.00 6126.00,718.00
             6126.00,718.00 6126.00,734.00 6126.00,734.00
             6126.00,734.00 6125.09,746.00 6125.09,746.00
             6121.82,792.73 6104.22,837.53 6066.00,866.76
             6040.13,886.56 6002.49,897.95 5970.00,898.00
             5970.00,898.00 5950.00,898.00 5950.00,898.00
             5950.00,898.00 5940.00,897.09 5940.00,897.09
             5902.39,894.34 5865.20,880.00 5839.09,852.00
             5814.70,825.85 5802.28,794.05 5797.72,759.00
             5797.72,759.00 5796.00,742.00 5796.00,742.00
             5796.00,742.00 5796.00,712.00 5796.00,712.00
             5796.05,678.06 5808.57,639.13 5828.89,612.00
             5848.31,586.07 5875.04,569.16 5906.00,560.43
             5917.88,557.07 5929.87,556.03 5942.00,554.14 Z
           M 6502.00,749.00
           C 6502.00,749.00 6278.00,749.00 6278.00,749.00
             6278.00,760.99 6277.91,769.40 6282.23,781.00
             6292.81,809.42 6317.26,821.99 6346.00,824.09
             6346.00,824.09 6355.00,824.97 6355.00,824.97
             6355.00,824.97 6364.00,824.08 6364.00,824.08
             6375.99,823.12 6387.96,820.66 6399.00,815.69
             6418.15,807.06 6426.45,798.55 6441.00,784.00
             6448.63,789.46 6470.61,815.29 6479.01,824.00
             6481.58,826.66 6491.71,836.79 6491.66,840.00
             6491.63,842.72 6487.81,846.16 6486.00,848.00
             6479.00,855.10 6475.11,858.89 6467.00,864.85
             6439.20,885.23 6408.03,894.60 6374.00,897.09
             6374.00,897.09 6364.00,898.00 6364.00,898.00
             6327.08,898.43 6295.71,896.14 6262.00,879.25
             6228.53,862.47 6204.70,832.41 6193.34,797.00
             6188.45,781.73 6185.69,765.93 6184.04,750.00
             6184.04,750.00 6184.04,741.00 6184.04,741.00
             6184.04,741.00 6183.00,729.00 6183.00,729.00
             6183.00,729.00 6183.00,723.00 6183.00,723.00
             6183.00,723.00 6184.04,713.00 6184.04,713.00
             6184.04,713.00 6184.04,704.00 6184.04,704.00
             6188.51,658.42 6202.15,620.53 6237.00,589.17
             6260.65,567.89 6299.25,554.38 6331.00,554.00
             6331.00,554.00 6354.00,554.00 6354.00,554.00
             6384.10,554.05 6417.81,564.95 6442.00,582.73
             6449.40,588.17 6457.68,596.17 6463.83,603.00
             6470.97,610.93 6477.41,620.49 6482.24,630.00
             6494.23,653.58 6501.96,682.41 6502.00,709.00
             6502.00,709.00 6502.00,749.00 6502.00,749.00 Z
           M 7470.00,821.00
           C 7470.00,821.00 7470.00,890.00 7470.00,890.00
             7470.00,890.00 7430.00,890.00 7430.00,890.00
             7430.00,890.00 7408.00,890.00 7408.00,890.00
             7387.03,889.90 7365.49,878.54 7355.31,860.00
             7349.71,849.80 7349.02,844.10 7347.00,833.00
             7347.00,833.00 7345.00,833.00 7345.00,833.00
             7338.80,851.60 7333.69,862.73 7318.00,875.68
             7300.75,889.92 7273.21,897.97 7251.00,898.00
             7251.00,898.00 7238.00,898.00 7238.00,898.00
             7209.42,897.96 7180.63,887.08 7161.09,866.00
             7147.79,851.65 7139.23,828.56 7139.00,809.00
             7138.74,786.05 7139.36,765.91 7152.75,746.00
             7165.39,727.19 7182.98,716.62 7204.00,709.34
             7223.65,702.55 7243.43,700.32 7264.00,698.91
             7264.00,698.91 7276.00,698.00 7276.00,698.00
             7276.00,698.00 7339.00,698.00 7339.00,698.00
             7339.00,680.26 7340.05,660.54 7329.90,645.00
             7319.88,629.65 7305.32,625.18 7288.00,623.91
             7284.13,623.63 7282.20,622.85 7278.00,623.09
             7264.18,623.87 7249.51,626.12 7237.00,632.37
             7221.41,640.16 7210.77,651.74 7200.00,665.00
             7200.00,665.00 7161.00,631.16 7161.00,631.16
             7158.14,628.61 7148.78,621.57 7148.59,617.91
             7148.39,614.14 7155.52,605.89 7158.00,603.00
             7168.28,591.03 7180.90,581.34 7195.00,574.25
             7218.23,562.55 7239.04,556.81 7265.00,554.91
             7265.00,554.91 7275.00,554.00 7275.00,554.00
             7309.77,553.60 7339.62,554.37 7372.00,569.31
             7379.50,572.77 7389.61,579.38 7396.00,584.62
             7421.66,605.65 7433.95,639.36 7434.00,672.00
             7434.00,672.00 7434.00,695.00 7434.00,695.00
             7434.00,695.00 7434.00,741.00 7434.00,741.00
             7434.00,741.00 7434.00,797.00 7434.00,797.00
             7434.07,811.19 7442.48,820.93 7457.00,821.00
             7457.00,821.00 7470.00,821.00 7470.00,821.00 Z
           M 7666.00,554.09
           C 7666.00,554.09 7688.00,554.09 7688.00,554.09
             7688.00,554.09 7702.00,554.09 7702.00,554.09
             7702.00,554.09 7714.00,554.91 7714.00,554.91
             7743.40,557.06 7773.05,564.75 7798.00,580.86
             7804.82,585.27 7811.24,590.27 7817.00,596.00
             7818.61,597.61 7822.12,600.93 7822.83,603.00
             7824.22,607.03 7816.55,614.07 7813.95,617.00
             7813.95,617.00 7788.42,646.00 7788.42,646.00
             7786.65,648.05 7779.99,656.07 7777.83,656.66
             7774.98,657.45 7771.92,653.86 7770.00,652.16
             7763.62,646.53 7759.15,643.24 7752.00,638.69
             7736.07,628.57 7710.91,621.22 7692.00,621.00
             7676.18,620.82 7659.17,620.73 7645.00,628.88
             7633.87,635.28 7626.66,648.21 7631.11,661.00
             7634.24,670.01 7642.44,674.51 7651.00,677.25
             7662.05,680.80 7694.00,685.36 7707.00,687.27
             7746.19,693.04 7800.89,704.45 7819.68,744.00
             7826.94,759.28 7828.03,774.43 7828.00,791.00
             7827.93,835.03 7799.32,867.68 7760.00,883.99
             7740.69,892.00 7719.75,895.64 7699.00,897.09
             7699.00,897.09 7687.00,898.00 7687.00,898.00
             7655.63,898.05 7635.93,897.64 7605.00,889.87
             7581.26,883.91 7556.95,872.98 7538.00,857.39
             7533.95,854.05 7521.68,842.63 7520.28,838.00
             7518.78,833.02 7526.72,827.60 7530.00,824.72
             7530.00,824.72 7559.00,797.91 7559.00,797.91
             7561.59,795.50 7567.74,788.48 7571.00,788.05
             7574.50,787.59 7578.61,792.69 7581.00,794.91
             7588.13,801.53 7596.57,807.85 7605.00,812.72
             7629.26,826.71 7652.32,831.13 7680.00,831.00
             7700.96,830.90 7732.89,823.49 7734.82,798.00
             7735.62,787.39 7728.35,779.29 7719.00,775.45
             7705.20,769.79 7682.30,767.25 7667.00,764.75
             7629.03,758.55 7586.70,753.68 7558.01,724.99
             7542.80,709.76 7537.77,690.83 7536.96,670.00
             7536.54,659.22 7536.78,648.58 7539.23,638.00
             7546.27,607.70 7566.33,585.58 7594.00,572.11
             7610.64,564.01 7628.65,558.75 7647.00,556.28
             7647.00,556.28 7666.00,554.09 7666.00,554.09 Z
           M 2477.00,561.00
           C 2477.00,561.00 2477.00,890.00 2477.00,890.00
             2477.00,890.00 2382.00,890.00 2382.00,890.00
             2382.00,890.00 2382.00,561.00 2382.00,561.00
             2382.00,561.00 2477.00,561.00 2477.00,561.00 Z
           M 3333.00,561.00
           C 3333.00,561.00 3333.00,654.00 3333.00,654.00
             3333.00,654.00 3337.00,654.00 3337.00,654.00
             3337.71,645.61 3342.23,633.83 3345.58,626.00
             3357.22,598.77 3374.51,577.80 3403.00,567.44
             3419.33,561.49 3436.84,561.00 3454.00,561.00
             3454.00,561.00 3454.00,649.00 3454.00,649.00
             3454.00,649.00 3412.00,649.00 3412.00,649.00
             3395.56,649.00 3380.86,648.84 3366.00,657.46
             3345.32,669.46 3333.11,692.28 3333.00,716.00
             3333.00,716.00 3333.00,890.00 3333.00,890.00
             3333.00,890.00 3238.00,890.00 3238.00,890.00
             3238.00,890.00 3238.00,561.00 3238.00,561.00
             3238.00,561.00 3333.00,561.00 3333.00,561.00 Z
           M 3622.00,561.00
           C 3622.00,561.00 3622.00,890.00 3622.00,890.00
             3622.00,890.00 3527.00,890.00 3527.00,890.00
             3527.00,890.00 3527.00,561.00 3527.00,561.00
             3527.00,561.00 3622.00,561.00 3622.00,561.00 Z
           M 932.00,696.00
           C 932.00,696.00 1063.00,696.00 1063.00,696.00
             1063.00,678.38 1061.87,663.15 1051.64,648.00
             1046.44,640.30 1038.33,632.98 1030.00,628.81
             1006.12,616.87 969.09,620.46 950.09,640.04
             934.18,656.42 932.00,674.42 932.00,696.00 Z
           M 4846.00,696.00
           C 4846.00,696.00 4977.00,696.00 4977.00,696.00
             4977.00,678.38 4975.87,663.15 4965.64,648.00
             4960.44,640.30 4952.33,632.98 4944.00,628.81
             4920.12,616.87 4883.09,620.46 4864.09,640.04
             4848.18,656.42 4846.00,674.42 4846.00,696.00 Z
           M 6278.00,696.00
           C 6278.00,696.00 6409.00,696.00 6409.00,696.00
             6409.00,678.38 6407.87,663.15 6397.64,648.00
             6392.44,640.30 6384.33,632.98 6376.00,628.81
             6352.12,616.87 6315.09,620.46 6296.09,640.04
             6280.18,656.42 6278.00,674.42 6278.00,696.00 Z
           M 1748.00,625.22
           C 1740.54,626.82 1733.77,628.55 1727.00,632.12
             1689.35,651.98 1694.00,695.22 1694.00,731.00
             1694.00,731.00 1694.00,757.00 1694.00,757.00
             1694.03,779.10 1702.37,803.08 1721.00,816.22
             1724.83,818.92 1731.52,822.17 1736.00,823.64
             1741.40,825.42 1750.31,826.93 1756.00,827.00
             1769.53,827.15 1780.42,826.57 1793.00,820.68
             1819.05,808.48 1827.96,778.65 1828.00,752.00
             1828.00,752.00 1828.00,729.00 1828.00,729.00
             1828.00,696.54 1831.19,657.37 1801.00,636.04
             1796.41,632.80 1791.33,630.15 1786.00,628.36
             1779.19,626.07 1772.16,625.01 1765.00,625.22
             1765.00,625.22 1748.00,625.22 1748.00,625.22 Z
           M 2989.00,625.22
           C 2981.54,626.82 2974.77,628.55 2968.00,632.12
             2930.35,651.98 2935.00,695.22 2935.00,731.00
             2935.00,731.00 2935.00,757.00 2935.00,757.00
             2935.03,779.10 2943.37,803.08 2962.00,816.22
             2965.83,818.92 2972.52,822.17 2977.00,823.64
             2982.40,825.42 2991.31,826.93 2997.00,827.00
             3010.53,827.15 3021.42,826.57 3034.00,820.68
             3060.05,808.48 3068.96,778.65 3069.00,752.00
             3069.00,752.00 3069.00,729.00 3069.00,729.00
             3069.00,696.54 3072.19,657.37 3042.00,636.04
             3037.41,632.80 3032.33,630.15 3027.00,628.36
             3020.19,626.07 3013.16,625.01 3006.00,625.22
             3006.00,625.22 2989.00,625.22 2989.00,625.22 Z
           M 3848.00,625.22
           C 3840.54,626.82 3833.77,628.55 3827.00,632.12
             3789.35,651.98 3794.00,695.22 3794.00,731.00
             3794.00,731.00 3794.00,757.00 3794.00,757.00
             3794.03,779.10 3802.37,803.08 3821.00,816.22
             3824.83,818.92 3831.52,822.17 3836.00,823.64
             3841.40,825.42 3850.31,826.93 3856.00,827.00
             3869.53,827.15 3880.42,826.57 3893.00,820.68
             3919.05,808.48 3927.96,778.65 3928.00,752.00
             3928.00,752.00 3928.00,729.00 3928.00,729.00
             3928.00,696.54 3931.19,657.37 3901.00,636.04
             3896.40,632.79 3891.34,630.15 3886.00,628.36
             3879.19,626.07 3872.16,625.01 3865.00,625.22
             3865.00,625.22 3848.00,625.22 3848.00,625.22 Z
           M 5948.00,625.22
           C 5940.54,626.82 5933.77,628.55 5927.00,632.12
             5889.35,651.98 5894.00,695.22 5894.00,731.00
             5894.00,731.00 5894.00,757.00 5894.00,757.00
             5894.03,779.10 5902.37,803.08 5921.00,816.22
             5924.83,818.92 5931.52,822.17 5936.00,823.64
             5941.40,825.42 5950.31,826.93 5956.00,827.00
             5969.53,827.15 5980.42,826.57 5993.00,820.68
             6019.05,808.48 6027.96,778.65 6028.00,752.00
             6028.00,752.00 6028.00,729.00 6028.00,729.00
             6028.00,696.54 6031.19,657.37 6001.00,636.04
             5996.41,632.80 5991.33,630.15 5986.00,628.36
             5979.19,626.07 5972.16,625.01 5965.00,625.22
             5965.00,625.22 5948.00,625.22 5948.00,625.22 Z
           M 1369.00,628.21
           C 1352.52,631.13 1336.86,636.32 1327.10,651.00
             1317.21,665.89 1320.00,695.08 1320.00,713.00
             1320.00,713.00 1320.00,763.00 1320.00,763.00
             1320.00,775.01 1319.43,787.02 1325.32,798.00
             1331.80,810.07 1343.35,816.69 1356.00,820.65
             1361.60,822.41 1371.14,823.93 1377.00,824.00
             1385.17,824.09 1393.07,823.80 1401.00,821.57
             1407.27,819.81 1412.50,817.86 1418.00,814.30
             1436.40,802.39 1445.97,779.42 1446.00,758.00
             1446.00,758.00 1446.00,726.00 1446.00,726.00
             1446.00,693.76 1449.80,660.67 1420.00,638.93
             1415.87,635.91 1409.86,632.99 1405.00,631.36
             1398.19,629.07 1391.16,628.01 1384.00,628.21
             1384.00,628.21 1369.00,628.21 1369.00,628.21 Z
           M 4516.00,628.22
           C 4508.94,629.58 4501.46,631.19 4495.00,634.37
             4470.35,646.53 4461.04,674.13 4461.00,700.00
             4461.00,700.00 4461.00,726.00 4461.00,726.00
             4461.00,726.00 4461.00,754.00 4461.00,754.00
             4461.44,791.49 4482.72,823.53 4523.00,824.00
             4547.85,824.29 4576.45,817.81 4584.97,791.00
             4586.85,785.09 4586.99,783.09 4587.00,777.00
             4587.00,777.00 4587.00,693.00 4587.00,693.00
             4587.00,677.17 4589.04,662.71 4579.21,649.00
             4566.45,631.21 4542.20,627.77 4522.00,628.22
             4522.00,628.22 4516.00,628.22 4516.00,628.22 Z
           M 7339.00,750.00
           C 7339.00,750.00 7285.00,750.00 7285.00,750.00
             7267.51,750.03 7242.60,755.22 7234.88,773.00
             7231.01,781.91 7231.89,792.43 7232.00,802.00
             7232.27,824.75 7252.71,834.76 7273.00,835.00
             7273.00,835.00 7286.00,835.00 7286.00,835.00
             7306.86,834.97 7330.59,824.32 7336.96,803.00
             7338.51,797.80 7338.99,792.40 7339.00,787.00
             7339.00,787.00 7339.00,750.00 7339.00,750.00 Z" />
</svg>
