<?xml version="1.0" encoding="UTF-8" standalone="no"?>
<svg
   xmlns:dc="http://purl.org/dc/elements/1.1/"
   xmlns:cc="http://creativecommons.org/ns#"
   xmlns:rdf="http://www.w3.org/1999/02/22-rdf-syntax-ns#"
   xmlns:svg="http://www.w3.org/2000/svg"
   xmlns="http://www.w3.org/2000/svg"
   xmlns:sodipodi="http://sodipodi.sourceforge.net/DTD/sodipodi-0.dtd"
   xmlns:inkscape="http://www.inkscape.org/namespaces/inkscape"
   version="1.0"
   width="8618.667"
   height="1000"
   viewBox="0 0 6464 749.99997"
   preserveAspectRatio="xMidYMid meet"
   id="svg64"
   sodipodi:docname="logo.svg"
   inkscape:version="0.92.4 (unknown)">
  <defs
     id="defs68" />
  <sodipodi:namedview
     pagecolor="#ffffff"
     bordercolor="#666666"
     borderopacity="1"
     objecttolerance="10"
     gridtolerance="10"
     guidetolerance="10"
     inkscape:pageopacity="0"
     inkscape:pageshadow="2"
     inkscape:window-width="1920"
     inkscape:window-height="1005"
     id="namedview66"
     showgrid="false"
     inkscape:snap-text-baseline="true"
     inkscape:snap-others="true"
     inkscape:zoom="0.15443224"
     inkscape:cx="2842.6706"
     inkscape:cy="1413.145"
     inkscape:window-x="0"
     inkscape:window-y="38"
     inkscape:window-maximized="1"
     inkscape:current-layer="g62"
     units="px" />
  <metadata
     id="metadata2">
Created by potrace 1.13, written by Peter Selinger 2001-2015
<rdf:RDF>
  <cc:Work
     rdf:about="">
    <dc:format>image/svg+xml</dc:format>
    <dc:type
       rdf:resource="http://purl.org/dc/dcmitype/StillImage" />
    <dc:title></dc:title>
  </cc:Work>
</rdf:RDF>
</metadata>
  <g
     transform="matrix(0.1,0,0,-0.1,0,749.99998)"
     id="g62"
     style="fill:#000000;stroke:none">
    <g
       aria-label="Repositório de Poemas "
       transform="matrix(14.2278,0,0,-14.2278,-7369.2455,18875.748)"
       style="font-style:normal;font-weight:normal;font-size:40px;line-height:1.25;font-family:sans-serif;letter-spacing:0px;word-spacing:0px;fill:#000000;fill-opacity:1;stroke:none"
       id="flowRoot27">
      <path
         d="m 567.50995,973.27172 h -28.416 v -134.016 h 51.84 q 19.584,0 30.336,11.52 10.752,11.328 10.752,31.104 0,14.208 -6.336,24.576 -6.144,10.176 -17.28,13.248 l 26.304,53.568 h -31.488 l -22.464,-49.728 h -13.248 z m 16.512,-72 q 9.984,0 14.016,-3.84 4.032,-3.84 4.032,-12.672 v -5.76 q 0,-8.832 -4.032,-12.672 -4.032,-3.84 -14.016,-3.84 h -16.512 v 38.784 z"
         style="font-style:normal;font-variant:normal;font-weight:normal;font-stretch:normal;font-size:192px;font-family:'iA Writer Quattro S';-inkscape-font-specification:'iA Writer Quattro S, Normal';font-variant-ligatures:normal;font-variant-caps:normal;font-variant-numeric:normal;font-feature-settings:normal;text-align:start;writing-mode:lr-tb;text-anchor:start"
         id="path3834"
         inkscape:connector-curvature="0" />
      <path
         d="m 699.91495,975.57572 q -24.576,0 -37.632,-13.632 -13.056,-13.632 -13.056,-37.824 0,-24.384 12.864,-38.208 13.056,-14.016 35.328,-14.016 22.08,0 34.944,13.632 12.864,13.44 12.864,36.672 v 8.448 h -67.776 v 1.728 q 0,9.792 6.144,15.552 6.144,5.76 17.28,5.76 15.744,0 26.112,-12.288 l 15.36,16.704 q -6.336,7.872 -16.896,12.672 -10.56,4.8 -25.536,4.8 z m -2.304,-83.328 q -9.216,0 -14.784,5.76 -5.376,5.568 -5.376,15.168 v 1.536 h 39.936 v -1.536 q 0,-9.6 -5.376,-15.168 -5.184,-5.76 -14.4,-5.76 z"
         style="font-style:normal;font-variant:normal;font-weight:normal;font-stretch:normal;font-size:192px;font-family:'iA Writer Quattro S';-inkscape-font-specification:'iA Writer Quattro S, Normal';font-variant-ligatures:normal;font-variant-caps:normal;font-variant-numeric:normal;font-feature-settings:normal;text-align:start;writing-mode:lr-tb;text-anchor:start"
         id="path3836"
         inkscape:connector-curvature="0" />
      <path
         d="m 766.07995,874.19972 h 28.416 v 18.048 h 1.344 q 4.032,-9.6 10.944,-14.976 7.104,-5.376 18.432,-5.376 17.088,0 27.072,13.056 10.176,12.864 10.176,38.784 0,25.92 -10.176,38.976 -9.984,12.864 -27.072,12.864 -11.328,0 -18.432,-5.376 -6.912,-5.376 -10.944,-14.976 h -1.344 v 56.44798 h -28.416 z m 46.848,79.296 q 9.408,0 14.592,-5.76 5.376,-5.952 5.376,-16.32 v -15.36 q 0,-10.368 -5.376,-16.128 -5.184,-5.952 -14.592,-5.952 -8.064,0 -13.248,3.84 -5.184,3.84 -5.184,11.328 v 29.184 q 0,7.488 5.184,11.328 5.184,3.84 13.248,3.84 z"
         style="font-style:normal;font-variant:normal;font-weight:normal;font-stretch:normal;font-size:192px;font-family:'iA Writer Quattro S';-inkscape-font-specification:'iA Writer Quattro S, Normal';font-variant-ligatures:normal;font-variant-caps:normal;font-variant-numeric:normal;font-feature-settings:normal;text-align:start;writing-mode:lr-tb;text-anchor:start"
         id="path3838"
         inkscape:connector-curvature="0" />
      <path
         d="m 927.47695,975.57572 q -23.232,0 -36.48,-13.824 -13.248,-14.016 -13.248,-38.016 0,-24 13.248,-37.824 13.248,-14.016 36.48,-14.016 23.232,0 36.48,14.016 13.248,13.824 13.248,37.824 0,24 -13.248,38.016 -13.248,13.824 -36.48,13.824 z m 0,-21.12 q 9.6,0 14.976,-5.952 5.376,-5.952 5.376,-16.896 v -15.744 q 0,-10.944 -5.376,-16.896 -5.376,-5.952 -14.976,-5.952 -9.6,0 -14.976,5.952 -5.376,5.952 -5.376,16.896 v 15.744 q 0,10.944 5.376,16.896 5.376,5.952 14.976,5.952 z"
         style="font-style:normal;font-variant:normal;font-weight:normal;font-stretch:normal;font-size:192px;font-family:'iA Writer Quattro S';-inkscape-font-specification:'iA Writer Quattro S, Normal';font-variant-ligatures:normal;font-variant-caps:normal;font-variant-numeric:normal;font-feature-settings:normal;text-align:start;writing-mode:lr-tb;text-anchor:start"
         id="path3840"
         inkscape:connector-curvature="0" />
      <path
         d="m 1041.45,975.57572 q -16.32,0 -28.608,-4.992 -12.288,-4.992 -18.43205,-13.632 l 15.93605,-14.784 q 12.288,13.44 31.296,13.44 8.448,0 13.248,-2.688 4.8,-2.688 4.8,-7.872 0,-3.84 -3.072,-5.568 -2.88,-1.92 -9.216,-2.88 l -15.936,-2.496 q -14.592,-2.304 -23.232,-9.024 -8.44805,-6.72 -8.44805,-19.968 0,-15.552 11.90405,-24.384 12.096,-8.832 33.408,-8.832 28.224,0 41.28,15.168 l -14.208,16.128 q -4.608,-5.184 -11.712,-8.256 -7.104,-3.072 -16.32,-3.072 -8.064,0 -12.288,2.688 -4.224,2.496 -4.224,7.296 0,4.032 2.88,5.952 3.072,1.728 9.408,2.688 l 15.744,2.496 q 14.784,2.304 23.232,9.024 8.64,6.72 8.64,19.968 0,15.552 -12.096,24.576 -12.096,9.024 -33.984,9.024 z"
         style="font-style:normal;font-variant:normal;font-weight:normal;font-stretch:normal;font-size:192px;font-family:'iA Writer Quattro S';-inkscape-font-specification:'iA Writer Quattro S, Normal';font-variant-ligatures:normal;font-variant-caps:normal;font-variant-numeric:normal;font-feature-settings:normal;text-align:start;writing-mode:lr-tb;text-anchor:start"
         id="path3842"
         inkscape:connector-curvature="0" />
      <path
         d="m 1144.287,830.23172 v 30.336 h -30.528 v -30.336 z m -29.568,43.968 h 28.416 v 99.072 h -28.416 z"
         style="font-style:normal;font-variant:normal;font-weight:normal;font-stretch:normal;font-size:192px;font-family:'iA Writer Quattro S';-inkscape-font-specification:'iA Writer Quattro S, Normal';font-variant-ligatures:normal;font-variant-caps:normal;font-variant-numeric:normal;font-feature-settings:normal;text-align:start;writing-mode:lr-tb;text-anchor:start"
         id="path3844"
         inkscape:connector-curvature="0" />
      <path
         d="m 1213.557,944.66372 q 0,2.688 1.92,4.608 1.92,1.92 4.608,1.92 h 16.704 v 22.08 h -21.312 q -14.976,0 -22.656,-7.68 -7.68,-7.872 -7.68,-20.928 v -48.384 h -19.2 v -22.08 h 19.2 v -34.944 h 28.416 v 34.944 h 23.232 v 22.08 h -23.232 z"
         style="font-style:normal;font-variant:normal;font-weight:normal;font-stretch:normal;font-size:192px;font-family:'iA Writer Quattro S';-inkscape-font-specification:'iA Writer Quattro S, Normal';font-variant-ligatures:normal;font-variant-caps:normal;font-variant-numeric:normal;font-feature-settings:normal;text-align:start;writing-mode:lr-tb;text-anchor:start"
         id="path3846"
         inkscape:connector-curvature="0" />
      <path
         d="m 1301.727,975.57572 q -23.232,0 -36.48,-13.824 -13.248,-14.016 -13.248,-38.016 0,-24 13.248,-37.824 13.248,-14.016 36.48,-14.016 23.232,0 36.48,14.016 13.248,13.824 13.248,37.824 0,24 -13.248,38.016 -13.248,13.824 -36.48,13.824 z m 0,-21.12 q 9.6,0 14.976,-5.952 5.376,-5.952 5.376,-16.896 v -15.744 q 0,-10.944 -5.376,-16.896 -5.376,-5.952 -14.976,-5.952 -9.6,0 -14.976,5.952 -5.376,5.952 -5.376,16.896 v 15.744 q 0,10.944 5.376,16.896 5.376,5.952 14.976,5.952 z m 3.072,-88.704 -16.896,-8.256 22.848,-43.008 23.616,11.712 z"
         style="font-style:normal;font-variant:normal;font-weight:normal;font-stretch:normal;font-size:192px;font-family:'iA Writer Quattro S';-inkscape-font-specification:'iA Writer Quattro S, Normal';font-variant-ligatures:normal;font-variant-caps:normal;font-variant-numeric:normal;font-feature-settings:normal;text-align:start;writing-mode:lr-tb;text-anchor:start"
         id="path3848"
         inkscape:connector-curvature="0" />
      <path
         d="m 1372.884,874.19972 h 28.416 v 28.032 h 1.344 q 7.104,-28.032 31.68,-28.032 h 3.648 v 26.112 h -15.36 q -10.176,0 -15.744,6.144 -5.568,5.952 -5.568,15.36 v 51.456 h -28.416 z"
         style="font-style:normal;font-variant:normal;font-weight:normal;font-stretch:normal;font-size:192px;font-family:'iA Writer Quattro S';-inkscape-font-specification:'iA Writer Quattro S, Normal';font-variant-ligatures:normal;font-variant-caps:normal;font-variant-numeric:normal;font-feature-settings:normal;text-align:start;writing-mode:lr-tb;text-anchor:start"
         id="path3850"
         inkscape:connector-curvature="0" />
      <path
         d="m 1489.662,830.23172 v 30.336 h -30.528 v -30.336 z m -29.568,43.968 h 28.416 v 99.072 h -28.416 z"
         style="font-style:normal;font-variant:normal;font-weight:normal;font-stretch:normal;font-size:192px;font-family:'iA Writer Quattro S';-inkscape-font-specification:'iA Writer Quattro S, Normal';font-variant-ligatures:normal;font-variant-caps:normal;font-variant-numeric:normal;font-feature-settings:normal;text-align:start;writing-mode:lr-tb;text-anchor:start"
         id="path3852"
         inkscape:connector-curvature="0" />
      <path
         d="m 1560.852,975.57572 q -23.232,0 -36.48,-13.824 -13.248,-14.016 -13.248,-38.016 0,-24 13.248,-37.824 13.248,-14.016 36.48,-14.016 23.232,0 36.48,14.016 13.248,13.824 13.248,37.824 0,24 -13.248,38.016 -13.248,13.824 -36.48,13.824 z m 0,-21.12 q 9.6,0 14.976,-5.952 5.376,-5.952 5.376,-16.896 v -15.744 q 0,-10.944 -5.376,-16.896 -5.376,-5.952 -14.976,-5.952 -9.6,0 -14.976,5.952 -5.376,5.952 -5.376,16.896 v 15.744 q 0,10.944 5.376,16.896 5.376,5.952 14.976,5.952 z"
         style="font-style:normal;font-variant:normal;font-weight:normal;font-stretch:normal;font-size:192px;font-family:'iA Writer Quattro S';-inkscape-font-specification:'iA Writer Quattro S, Normal';font-variant-ligatures:normal;font-variant-caps:normal;font-variant-numeric:normal;font-feature-settings:normal;text-align:start;writing-mode:lr-tb;text-anchor:start"
         id="path3854"
         inkscape:connector-curvature="0" />
      <path
         d="m 1780.083,955.22372 h -1.344 q -4.032,9.6 -11.136,14.976 -6.912,5.376 -18.24,5.376 -17.088,0 -27.264,-12.864 -9.984,-13.056 -9.984,-38.976 0,-25.92 9.984,-38.784 10.176,-13.056 27.264,-13.056 11.328,0 18.24,5.376 7.104,5.376 11.136,14.976 h 1.344 v -61.056 h 28.416 v 142.08 h -28.416 z m -18.432,-1.728 q 8.064,0 13.248,-3.84 5.184,-3.84 5.184,-11.328 v -29.184 q 0,-7.488 -5.184,-11.328 -5.184,-3.84 -13.248,-3.84 -9.408,0 -14.784,5.952 -5.184,5.76 -5.184,16.128 v 15.36 q 0,10.368 5.184,16.32 5.376,5.76 14.784,5.76 z"
         style="font-style:normal;font-variant:normal;font-weight:normal;font-stretch:normal;font-size:192px;font-family:'iA Writer Quattro S';-inkscape-font-specification:'iA Writer Quattro S, Normal';font-variant-ligatures:normal;font-variant-caps:normal;font-variant-numeric:normal;font-feature-settings:normal;text-align:start;writing-mode:lr-tb;text-anchor:start"
         id="path3856"
         inkscape:connector-curvature="0" />
      <path
         d="m 1880.04,975.57572 q -24.576,0 -37.632,-13.632 -13.056,-13.632 -13.056,-37.824 0,-24.384 12.864,-38.208 13.056,-14.016 35.328,-14.016 22.08,0 34.944,13.632 12.864,13.44 12.864,36.672 v 8.448 h -67.776 v 1.728 q 0,9.792 6.144,15.552 6.144,5.76 17.28,5.76 15.744,0 26.112,-12.288 l 15.36,16.704 q -6.336,7.872 -16.896,12.672 -10.56,4.8 -25.536,4.8 z m -2.304,-83.328 q -9.216,0 -14.784,5.76 -5.376,5.568 -5.376,15.168 v 1.536 h 39.936 v -1.536 q 0,-9.6 -5.376,-15.168 -5.184,-5.76 -14.4,-5.76 z"
         style="font-style:normal;font-variant:normal;font-weight:normal;font-stretch:normal;font-size:192px;font-family:'iA Writer Quattro S';-inkscape-font-specification:'iA Writer Quattro S, Normal';font-variant-ligatures:normal;font-variant-caps:normal;font-variant-numeric:normal;font-feature-settings:normal;text-align:start;writing-mode:lr-tb;text-anchor:start"
         id="path3858"
         inkscape:connector-curvature="0" />
      <path
         d="m 2035.719,973.27172 v -134.016 h 51.84 q 19.584,0 30.336,11.52 10.752,11.328 10.752,31.104 0,19.776 -10.752,31.296 -10.752,11.328 -30.336,11.328 h -22.848 v 48.768 z m 28.992,-72 h 15.552 q 9.984,0 14.016,-3.84 4.032,-3.84 4.032,-12.672 v -5.76 q 0,-8.832 -4.032,-12.672 -4.032,-3.84 -14.016,-3.84 h -15.552 z"
         style="font-style:normal;font-variant:normal;font-weight:normal;font-stretch:normal;font-size:192px;font-family:'iA Writer Quattro S';-inkscape-font-specification:'iA Writer Quattro S, Normal';font-variant-ligatures:normal;font-variant-caps:normal;font-variant-numeric:normal;font-feature-settings:normal;text-align:start;writing-mode:lr-tb;text-anchor:start"
         id="path3860"
         inkscape:connector-curvature="0" />
      <path
         d="m 2193.852,975.57572 q -23.232,0 -36.48,-13.824 -13.248,-14.016 -13.248,-38.016 0,-24 13.248,-37.824 13.248,-14.016 36.48,-14.016 23.232,0 36.48,14.016 13.248,13.824 13.248,37.824 0,24 -13.248,38.016 -13.248,13.824 -36.48,13.824 z m 0,-21.12 q 9.6,0 14.976,-5.952 5.376,-5.952 5.376,-16.896 v -15.744 q 0,-10.944 -5.376,-16.896 -5.376,-5.952 -14.976,-5.952 -9.6,0 -14.976,5.952 -5.376,5.952 -5.376,16.896 v 15.744 q 0,10.944 5.376,16.896 5.376,5.952 14.976,5.952 z"
         style="font-style:normal;font-variant:normal;font-weight:normal;font-stretch:normal;font-size:192px;font-family:'iA Writer Quattro S';-inkscape-font-specification:'iA Writer Quattro S, Normal';font-variant-ligatures:normal;font-variant-caps:normal;font-variant-numeric:normal;font-feature-settings:normal;text-align:start;writing-mode:lr-tb;text-anchor:start"
         id="path3862"
         inkscape:connector-curvature="0" />
      <path
         d="m 2311.665,975.57572 q -24.576,0 -37.632,-13.632 -13.056,-13.632 -13.056,-37.824 0,-24.384 12.864,-38.208 13.056,-14.016 35.328,-14.016 22.08,0 34.944,13.632 12.864,13.44 12.864,36.672 v 8.448 h -67.776 v 1.728 q 0,9.792 6.144,15.552 6.144,5.76 17.28,5.76 15.744,0 26.112,-12.288 l 15.36,16.704 q -6.336,7.872 -16.896,12.672 -10.56,4.8 -25.536,4.8 z m -2.304,-83.328 q -9.216,0 -14.784,5.76 -5.376,5.568 -5.376,15.168 v 1.536 h 39.936 v -1.536 q 0,-9.6 -5.376,-15.168 -5.184,-5.76 -14.4,-5.76 z"
         style="font-style:normal;font-variant:normal;font-weight:normal;font-stretch:normal;font-size:192px;font-family:'iA Writer Quattro S';-inkscape-font-specification:'iA Writer Quattro S, Normal';font-variant-ligatures:normal;font-variant-caps:normal;font-variant-numeric:normal;font-feature-settings:normal;text-align:start;writing-mode:lr-tb;text-anchor:start"
         id="path3864"
         inkscape:connector-curvature="0" />
      <path
         d="m 2379.75,872.47172 h 28.416 v 17.088 h 1.152 q 2.88,-8.832 9.6,-14.016 6.912,-5.376 17.472,-5.376 10.368,0 17.664,5.184 7.296,5.184 10.56,15.168 h 0.576 q 2.88,-8.832 11.136,-14.592 8.448,-5.76 19.584,-5.76 14.592,0 22.272,10.56 7.872,10.368 7.872,29.376 v 63.168 h -28.416 v -60.864 q 0,-9.792 -3.456,-14.4 -3.264,-4.8 -10.368,-4.8 -6.912,0 -11.904,3.84 -4.8,3.84 -4.8,10.944 v 65.28 h -28.416 v -60.864 q 0,-19.2 -13.824,-19.2 -6.72,0 -11.712,3.84 -4.992,3.84 -4.992,10.944 v 65.28 h -28.416 z"
         style="font-style:normal;font-variant:normal;font-weight:normal;font-stretch:normal;font-size:192px;font-family:'iA Writer Quattro S';-inkscape-font-specification:'iA Writer Quattro S, Normal';font-variant-ligatures:normal;font-variant-caps:normal;font-variant-numeric:normal;font-feature-settings:normal;text-align:start;writing-mode:lr-tb;text-anchor:start"
         id="path3866"
         inkscape:connector-curvature="0" />
      <path
         d="m 2632.881,973.27172 q -8.832,0 -14.4,-4.608 -5.376,-4.608 -6.144,-12.864 h -0.96 q -2.496,9.6 -10.56,14.784 -8.064,4.992 -19.584,4.992 -14.592,0 -23.232,-7.872 -8.64,-7.872 -8.64,-21.696 0,-30.528 44.544,-30.528 h 15.936 v -4.992 q 0,-9.024 -4.224,-13.44 -4.224,-4.416 -13.824,-4.416 -8.448,0 -14.208,3.264 -5.568,3.264 -9.984,9.216 l -15.552,-13.824 q 5.184,-8.832 16.128,-14.016 10.944,-5.376 26.88,-5.376 20.544,0 31.872,9.6 11.328,9.408 11.328,27.84 v 36.864 q 0,2.688 1.92,4.608 1.92,1.92 4.608,1.92 h 4.416 v 20.544 z m -40.896,-16.32 q 7.872,0 12.864,-3.648 4.992,-3.84 4.992,-10.56 v -11.904 h -15.168 q -8.448,0 -13.056,3.072 -4.416,2.88 -4.416,8.64 v 3.84 q 0,5.184 3.84,7.872 4.032,2.688 10.944,2.688 z"
         style="font-style:normal;font-variant:normal;font-weight:normal;font-stretch:normal;font-size:192px;font-family:'iA Writer Quattro S';-inkscape-font-specification:'iA Writer Quattro S, Normal';font-variant-ligatures:normal;font-variant-caps:normal;font-variant-numeric:normal;font-feature-settings:normal;text-align:start;writing-mode:lr-tb;text-anchor:start"
         id="path3868"
         inkscape:connector-curvature="0" />
      <path
         d="m 2710.95,975.57572 q -16.32,0 -28.608,-4.992 -12.288,-4.992 -18.432,-13.632 l 15.936,-14.784 q 12.288,13.44 31.296,13.44 8.448,0 13.248,-2.688 4.8,-2.688 4.8,-7.872 0,-3.84 -3.072,-5.568 -2.88,-1.92 -9.216,-2.88 l -15.936,-2.496 q -14.592,-2.304 -23.232,-9.024 -8.448,-6.72 -8.448,-19.968 0,-15.552 11.904,-24.384 12.096,-8.832 33.408,-8.832 28.224,0 41.28,15.168 l -14.208,16.128 q -4.608,-5.184 -11.712,-8.256 -7.104,-3.072 -16.32,-3.072 -8.064,0 -12.288,2.688 -4.224,2.496 -4.224,7.296 0,4.032 2.88,5.952 3.072,1.728 9.408,2.688 l 15.744,2.496 q 14.784,2.304 23.232,9.024 8.64,6.72 8.64,19.968 0,15.552 -12.096,24.576 -12.096,9.024 -33.984,9.024 z"
         style="font-style:normal;font-variant:normal;font-weight:normal;font-stretch:normal;font-size:192px;font-family:'iA Writer Quattro S';-inkscape-font-specification:'iA Writer Quattro S, Normal';font-variant-ligatures:normal;font-variant-caps:normal;font-variant-numeric:normal;font-feature-settings:normal;text-align:start;writing-mode:lr-tb;text-anchor:start"
         id="path3870"
         inkscape:connector-curvature="0" />
    </g>
  </g>
</svg>
