<?xml version="1.0" encoding="UTF-8" standalone="no"?>
<svg
   xmlns:dc="http://purl.org/dc/elements/1.1/"
   xmlns:cc="http://creativecommons.org/ns#"
   xmlns:rdf="http://www.w3.org/1999/02/22-rdf-syntax-ns#"
   xmlns:svg="http://www.w3.org/2000/svg"
   xmlns="http://www.w3.org/2000/svg"
   xmlns:sodipodi="http://sodipodi.sourceforge.net/DTD/sodipodi-0.dtd"
   xmlns:inkscape="http://www.inkscape.org/namespaces/inkscape"
   version="1.0"
   width="6464.000000pt"
   height="2144.000000pt"
   viewBox="0 0 6464.000000 2144.000000"
   preserveAspectRatio="xMidYMid meet"
   id="svg64"
   sodipodi:docname="logo.svg"
   inkscape:version="0.92.4 (unknown)">
  <defs
     id="defs68" />
  <sodipodi:namedview
     pagecolor="#ffffff"
     bordercolor="#666666"
     borderopacity="1"
     objecttolerance="10"
     gridtolerance="10"
     guidetolerance="10"
     inkscape:pageopacity="0"
     inkscape:pageshadow="2"
     inkscape:window-width="1920"
     inkscape:window-height="1005"
     id="namedview66"
     showgrid="false"
     inkscape:snap-text-baseline="false"
     inkscape:snap-others="true"
     inkscape:zoom="0.15443224"
     inkscape:cx="4325.5216"
     inkscape:cy="1413.145"
     inkscape:window-x="0"
     inkscape:window-y="38"
     inkscape:window-maximized="1"
     inkscape:current-layer="g62" />
  <metadata
     id="metadata2">
Created by potrace 1.13, written by Peter Selinger 2001-2015
<rdf:RDF>
  <cc:Work
     rdf:about="">
    <dc:format>image/svg+xml</dc:format>
    <dc:type
       rdf:resource="http://purl.org/dc/dcmitype/StillImage" />
    <dc:title></dc:title>
  </cc:Work>
</rdf:RDF>
</metadata>
  <g
     transform="translate(0.000000,2144.000000) scale(0.100000,-0.100000)"
     fill="#000000"
     stroke="none"
     id="g62">
    <flowRoot
       xml:space="preserve"
       id="flowRoot3774"
       style="fill:black;fill-opacity:1;stroke:none;font-family:sans-serif;font-style:normal;font-weight:normal;font-size:40px;line-height:1.25;letter-spacing:0px;word-spacing:0px"><flowRegion
         id="flowRegion3776"><rect
           id="rect3778"
           width="6068.4351"
           height="2513.0022"
           x="288.52988"
           y="876.18719" /></flowRegion><flowPara
         id="flowPara3780" /></flowRoot>    <g
       aria-label="Repositório"
       transform="matrix(41.026873,0,0,-41.026873,-80840.919,39467.321)"
       style="font-style:normal;font-variant:normal;font-weight:normal;font-stretch:normal;font-size:192px;line-height:1.25;font-family:'iA Writer Quattro S';-inkscape-font-specification:'iA Writer Quattro S, Normal';font-variant-ligatures:normal;font-variant-caps:normal;font-variant-numeric:normal;font-feature-settings:normal;text-align:start;letter-spacing:0px;word-spacing:0px;writing-mode:lr-tb;text-anchor:start;fill:#000000;fill-opacity:1;stroke:none"
       id="flowRoot3782" />
    <flowRoot
       xml:space="preserve"
       id="flowRoot3792"
       style="fill:black;fill-opacity:1;stroke:none;font-family:sans-serif;font-style:normal;font-weight:normal;font-size:40px;line-height:1.25;letter-spacing:0px;word-spacing:0px"><flowRegion
         id="flowRegion3794"><rect
           id="rect3796"
           width="2010.4017"
           height="530.52277"
           x="511.90784"
           y="1890.6954" /></flowRegion><flowPara
         id="flowPara3798" /></flowRoot>    <g
       aria-label="[de Poemas"
       transform="matrix(1,0,0,-1,0,-3300)"
       style="font-style:normal;font-weight:normal;font-size:3892.92822266px;line-height:1.25;font-family:sans-serif;letter-spacing:0px;word-spacing:0px;fill:#000000;fill-opacity:1;stroke:none;stroke-width:97.32321167"
       id="text3802">
      <path
         id="path61"
         style="font-style:normal;font-variant:normal;font-weight:normal;font-stretch:normal;font-size:3892.98974609px;font-family:'iA Writer Quattro S';-inkscape-font-specification:'iA Writer Quattro S, Normal';font-variant-ligatures:normal;font-variant-caps:normal;font-variant-numeric:normal;font-feature-settings:normal;text-align:start;writing-mode:lr-tb;text-anchor:start;stroke-width:97.32321167"
         d="m 45645.492,-7128.4243 q -330.904,0 -580.055,-101.2177 -249.152,-101.2177 -373.727,-276.4023 l 323.118,-299.7602 q 249.151,272.5093 634.557,272.5093 171.292,0 268.616,-54.5018 97.325,-54.5019 97.325,-159.6126 0,-77.8598 -62.288,-112.8967 -58.395,-38.9299 -186.863,-58.3949 l -323.118,-50.6088 q -295.868,-46.7159 -471.052,-182.9706 -171.292,-136.2546 -171.292,-404.8709 0,-315.3322 241.366,-494.4097 245.258,-179.0775 677.38,-179.0775 572.269,0 836.993,307.5462 l -288.082,327.0111 q -93.431,-105.1107 -237.472,-167.3986 -144.041,-62.2878 -330.904,-62.2878 -163.506,0 -249.151,54.5019 -85.646,50.6088 -85.646,147.9336 0,81.7528 58.395,120.6827 62.288,35.0369 190.756,54.5018 l 319.225,50.6089 q 299.761,46.7159 471.052,182.9705 175.185,136.2546 175.185,404.8709 0,315.3322 -245.259,498.3027 -245.258,182.9705 -689.059,182.9705 z m -1582.926,-46.7158 q -179.078,0 -291.975,-93.4318 -109.003,-93.4317 -124.575,-260.8303 h -19.465 q -50.609,194.6495 -214.115,299.7602 -163.505,101.2177 -397.085,101.2177 -295.867,0 -471.051,-159.6125 -175.185,-159.6126 -175.185,-439.9079 0,-618.9854 903.174,-618.9854 h 323.118 v -101.2177 q 0,-182.9705 -85.646,-272.5093 -85.646,-89.5387 -280.295,-89.5387 -171.292,0 -288.081,66.1808 -112.897,66.1808 -202.436,186.8635 l -315.332,-280.2953 q 105.111,-179.0775 327.011,-284.1882 221.901,-109.0037 545.019,-109.0037 416.55,0 646.236,194.6495 229.686,190.7565 229.686,564.4835 v 747.454 q 0,54.5019 38.93,93.4318 38.93,38.9299 93.432,38.9299 h 89.539 v 416.5499 z m -829.207,-330.9042 q 159.612,0 260.83,-73.9668 101.218,-77.8598 101.218,-214.1144 v -241.3654 h -307.546 q -171.292,0 -264.724,62.2879 -89.538,58.3948 -89.538,175.1845 v 77.8598 q 0,105.1107 77.859,159.6126 81.753,54.5018 221.901,54.5018 z m -4303.274,-1712.9155 h 576.163 v 346.4761 h 23.357 q 58.395,-179.0775 194.65,-284.1882 140.148,-109.0037 354.262,-109.0037 210.221,0 358.155,105.1107 147.934,105.1107 214.115,307.5462 h 11.678 q 58.395,-179.0775 225.794,-295.8672 171.291,-116.7897 397.085,-116.7897 295.867,0 451.587,214.1144 159.612,210.2215 159.612,595.6274 v 1280.7937 h -576.162 v -1234.0778 q 0,-198.5425 -70.074,-291.9742 -66.181,-97.3248 -210.222,-97.3248 -140.147,0 -241.365,77.8598 -97.325,77.8598 -97.325,221.9004 v 1323.6166 h -576.162 v -1234.0778 q 0,-389.299 -280.295,-389.299 -136.255,0 -237.473,77.8598 -101.217,77.8598 -101.217,221.9004 v 1323.6166 h -576.163 z m -1380.491,2090.5355 q -498.303,0 -763.026,-276.4022 -264.723,-276.4023 -264.723,-766.919 0,-494.4097 260.83,-774.705 264.723,-284.1882 716.31,-284.1882 447.694,0 708.524,276.4022 260.831,272.5093 260.831,743.5611 v 171.2915 h -1374.226 v 35.0369 q 0,198.5425 124.576,315.3322 124.576,116.7897 350.369,116.7897 319.225,0 529.447,-249.1513 l 311.439,338.6901 q -128.469,159.6126 -342.583,256.9373 -214.115,97.3247 -517.768,97.3247 z m -46.716,-1689.5575 q -186.863,0 -299.76,116.7897 -109.004,112.8967 -109.004,307.5462 v 31.1439 h 809.742 v -31.1439 q 0,-194.6495 -109.004,-307.5462 -105.11,-116.7897 -291.974,-116.7897 z m -2342.059,1689.5575 q -471.052,0 -739.668,-280.2952 -268.617,-284.1883 -268.617,-770.812 0,-486.6237 268.617,-766.919 268.616,-284.1882 739.668,-284.1882 471.052,0 739.668,284.1882 268.616,280.2953 268.616,766.919 0,486.6237 -268.616,770.812 -268.616,280.2952 -739.668,280.2952 z m 0,-428.2288 q 194.649,0 303.653,-120.6827 109.004,-120.6827 109.004,-342.5831 v -319.2252 q 0,-221.9004 -109.004,-342.5831 -109.004,-120.6827 -303.653,-120.6827 -194.65,0 -303.653,120.6827 -109.004,120.6827 -109.004,342.5831 v 319.2252 q 0,221.9004 109.004,342.5831 109.003,120.6827 303.653,120.6827 z m -3206.303,381.513 V -9892.447 h 1051.107 q 397.085,0 615.092,233.5794 218.008,229.6864 218.008,630.6643 0,400.978 -218.008,634.5574 -218.007,229.6864 -615.092,229.6864 h -463.266 v 988.8194 z m 587.841,-1459.8712 h 315.332 q 202.436,0 284.189,-77.8598 81.752,-77.8598 81.752,-256.9373 v -116.7897 q 0,-179.0775 -81.752,-256.9373 -81.753,-77.8598 -284.189,-77.8598 h -315.332 z m -3744.386,1506.587 q -498.303,0 -763.026,-276.4022 -264.724,-276.4023 -264.724,-766.919 0,-494.4097 260.831,-774.705 264.723,-284.1882 716.31,-284.1882 447.694,0 708.524,276.4022 260.83,272.5093 260.83,743.5611 v 171.2915 h -1374.225 v 35.0369 q 0,198.5425 124.575,315.3322 124.576,116.7897 350.37,116.7897 319.225,0 529.446,-249.1513 l 311.439,338.6901 q -128.468,159.6126 -342.583,256.9373 -214.114,97.3247 -517.767,97.3247 z m -46.716,-1689.5575 q -186.864,0 -299.761,116.7897 -109.003,112.8967 -109.003,307.5462 v 31.1439 h 809.742 v -31.1439 q 0,-194.6495 -109.004,-307.5462 -105.111,-116.7897 -291.974,-116.7897 z m -1980.011,1276.9006 h -27.251 q -81.753,194.6495 -225.794,303.6532 -140.147,109.0037 -369.834,109.0037 -346.476,0 -552.804,-260.8303 -202.436,-264.7233 -202.436,-790.2769 0,-525.5536 202.436,-786.3839 206.328,-264.7233 552.804,-264.7233 229.687,0 369.834,109.0037 144.041,109.0037 225.794,303.6532 h 27.251 v -1237.9712 h 576.162 v 2880.8129 h -576.162 z m -373.727,-35.0369 q 163.505,0 268.616,-77.8598 105.111,-77.8598 105.111,-229.6864 v -591.7344 q 0,-151.8266 -105.111,-229.6864 -105.111,-77.8598 -268.616,-77.8598 -190.757,0 -299.761,120.6827 -105.11,116.7897 -105.11,327.0111 v 311.4392 q 0,210.2214 105.11,330.9041 109.004,116.7897 299.761,116.7897 z m -2778.074,938.2105 v -3495.9044 h 1261.328 v 385.4056 h -798.063 v 2725.0929 h 798.063 v 385.4059 z m 20920.182,-4933.0014 q -953.136,0 -1496.66,-567.156 -543.524,-575.032 -543.524,-1559.677 0,-984.645 543.524,-1551.801 543.524,-575.032 1496.66,-575.032 953.137,0 1496.661,575.032 543.524,567.156 543.524,1551.801 0,984.645 -543.524,1559.677 -543.524,567.156 -1496.661,567.156 z m 0,-866.488 q 393.858,0 614.419,-244.192 220.56,-244.192 220.56,-693.19 v -645.927 q 0,-448.997 -220.56,-693.189 -220.561,-244.192 -614.419,-244.192 -393.858,0 -614.418,244.192 -220.56,244.192 -220.56,693.189 v 645.927 q 0,448.998 220.56,693.19 220.56,244.192 614.418,244.192 z m -2920.703,-5096.522 v 1244.592 h -1252.468 v -1244.592 z m -1213.082,1803.87 h 1165.819 v 4064.614 H 40405.84 Z m -3577.954,0 h 1165.82 v 1150.065 h 55.14 q 291.455,-1150.065 1299.731,-1150.065 h 149.666 v 1071.293 h -630.172 q -417.49,0 -645.928,252.069 -228.437,244.192 -228.437,630.173 v 2111.079 h -1165.82 z m -2919.349,4159.14 q -953.136,0 -1496.66,-567.156 -543.524,-575.032 -543.524,-1559.677 0,-984.645 543.524,-1551.801 543.524,-575.032 1496.66,-575.032 953.136,0 1496.66,575.032 543.524,567.156 543.524,1551.801 0,984.645 -543.524,1559.677 -543.524,567.156 -1496.66,567.156 z m 0,-866.488 q 393.858,0 614.418,-244.192 220.561,-244.192 220.561,-693.19 v -645.927 q 0,-448.997 -220.561,-693.189 -220.56,-244.192 -614.418,-244.192 -393.858,0 -614.418,244.192 -220.561,244.192 -220.561,693.189 v 645.927 q 0,448.998 220.561,693.19 220.56,244.192 614.418,244.192 z m 126.035,-3639.247 -693.19,-338.718 937.382,-1764.484 968.89,480.507 z m -3743.374,3237.513 q 0,110.28 78.771,189.051 78.772,78.772 189.052,78.772 h 685.313 v 905.873 h -874.365 q -614.418,0 -929.505,-315.086 -315.086,-322.964 -315.086,-858.61 v -1985.045 h -787.716 v -905.873 h 787.716 v -1433.643 h 1165.82 v 1433.643 h 953.136 v 905.873 h -953.136 z m -2841.932,-4694.788 v 1244.592 h -1252.468 v -1244.592 z m -1213.082,1803.87 h 1165.819 v 4064.614 h -1165.819 z m -3005.998,4159.14 q -669.559,0 -1173.697,-204.806 -504.138,-204.806 -756.208,-559.279 l 653.805,-606.541 q 504.138,551.401 1283.977,551.401 346.595,0 543.524,-110.28 196.929,-110.28 196.929,-322.964 0,-157.542 -126.035,-228.437 -118.157,-78.772 -378.103,-118.158 l -653.805,-102.403 q -598.664,-94.526 -953.136,-370.226 -346.595,-275.701 -346.595,-819.224 0,-638.051 488.384,-1000.4 496.261,-362.349 1370.626,-362.349 1157.942,0 1693.589,622.296 l -582.91,661.681 q -189.052,-212.684 -480.507,-338.718 -291.455,-126.035 -669.558,-126.035 -330.841,0 -504.138,110.28 -173.298,102.404 -173.298,299.333 0,165.42 118.157,244.191 126.035,70.895 385.981,110.281 l 645.927,102.403 q 606.542,94.526 953.137,370.226 354.472,275.701 354.472,819.225 0,638.05 -496.261,1008.276 -496.261,370.227 -1394.257,370.227 z m -4675.956,0 q -953.137,0 -1496.661,-567.156 -543.524,-575.032 -543.524,-1559.677 0,-984.645 543.524,-1551.801 543.524,-575.032 1496.661,-575.032 953.136,0 1496.66,575.032 543.524,567.156 543.524,1551.801 0,984.645 -543.524,1559.677 -543.524,567.156 -1496.66,567.156 z m 0,-866.488 q 393.858,0 614.418,-244.192 220.561,-244.192 220.561,-693.19 v -645.927 q 0,-448.997 -220.561,-693.189 -220.56,-244.192 -614.418,-244.192 -393.858,0 -614.419,244.192 -220.56,244.192 -220.56,693.189 v 645.927 q 0,448.998 220.56,693.19 220.561,244.192 614.419,244.192 z m -6621.614,-3292.652 h 1165.819 v 740.453 h 55.14 q 165.421,-393.858 448.998,-614.419 291.455,-220.56 756.208,-220.56 701.067,0 1110.679,535.647 417.49,527.769 417.49,1591.186 0,1063.416 -417.49,1599.064 -409.612,527.769 -1110.679,527.769 -464.753,0 -756.208,-220.561 -283.577,-220.56 -448.998,-614.418 h -55.14 v 2315.885 h -1165.819 z m 1922.027,3253.267 q 385.98,0 598.664,-236.315 220.56,-244.192 220.56,-669.559 v -630.173 q 0,-425.366 -220.56,-661.681 -212.684,-244.192 -598.664,-244.192 -330.841,0 -543.525,157.543 -212.683,157.543 -212.683,464.753 v 1197.328 q 0,307.209 212.683,464.752 212.684,157.544 543.525,157.544 z m -4636.5705,905.873 q -1008.2764,0 -1543.9233,-559.278 -535.6468,-559.279 -535.6468,-1551.801 0,-1000.399 527.7697,-1567.555 535.6468,-575.032 1449.3973,-575.032 905.8736,0 1433.6426,559.278 527.77,551.402 527.77,1504.537 v 346.595 H 8296.4448 v 70.895 q 0,401.735 252.0691,638.05 252.0692,236.315 708.9444,236.315 645.9271,0 1071.2937,-504.138 l 630.173,685.312 q -259.946,322.964 -693.19,519.893 -433.244,196.929 -1047.6625,196.929 z m -94.5259,-3418.687 q -378.1037,0 -606.5413,236.314 -220.5605,228.438 -220.5605,622.296 v 63.018 H 9934.894 v -63.018 q 0,-393.858 -220.5604,-622.296 -212.6833,-236.314 -590.787,-236.314 z m -5337.6372,3324.161 H 2620.0898 v -5498.257 h 2126.8331 q 803.4702,0 1244.5912,472.629 441.1209,464.753 441.1209,1276.1 0,582.91 -259.9462,1008.276 -252.0692,417.49 -708.9444,543.524 l 1079.1709,2197.728 H 5251.0611 l -921.6277,-2040.184 h -543.524 z m 677.4357,-2953.935 q 409.6123,0 575.0327,-157.543 165.4203,-157.543 165.4203,-519.892 v -236.315 q 0,-362.35 -165.4203,-519.893 -165.4204,-157.543 -575.0327,-157.543 h -677.4357 v 1591.186 z"
         inkscape:connector-curvature="0" />
    </g>
  </g>
</svg>
